solid OpenSCAD_Model
  facet normal -0 0 -1
    outer loop
      vertex 27.9588 0.0340729 0
      vertex 27.8305 0.00856018 0
      vertex 28.0827 0.0761261 0
    endloop
  endfacet
  facet normal 0 0 -1
    outer loop
      vertex 28.4933 0.391235 0
      vertex 28.3088 0.20665 0
      vertex 28.0827 0.0761261 0
    endloop
  endfacet
  facet normal 0 0 -1
    outer loop
      vertex 28.3088 0.20665 0
      vertex 28.2 0.133972 0
      vertex 28.0827 0.0761261 0
    endloop
  endfacet
  facet normal 0 0 -1
    outer loop
      vertex 28.4933 0.391235 0
      vertex 28.4071 0.292892 0
      vertex 28.3088 0.20665 0
    endloop
  endfacet
  facet normal 0 0 -1
    outer loop
      vertex 28.6239 0.61731 0
      vertex 28.4933 0.391235 0
      vertex 28.0827 0.0761261 0
    endloop
  endfacet
  facet normal 0 0 -1
    outer loop
      vertex 28.6239 0.61731 0
      vertex 28.566 0.5 0
      vertex 28.4933 0.391235 0
    endloop
  endfacet
  facet normal 0 0 -1
    outer loop
      vertex 27.8305 0.00856018 0
      vertex 28.6239 0.61731 0
      vertex 28.0827 0.0761261 0
    endloop
  endfacet
  facet normal 0 0 -1
    outer loop
      vertex 28.6914 0.869476 0
      vertex 28.6659 0.74118 0
      vertex 28.6239 0.61731 0
    endloop
  endfacet
  facet normal 0 0 -1
    outer loop
      vertex 27.8305 0.00856018 0
      vertex 28.6914 0.869476 0
      vertex 28.6239 0.61731 0
    endloop
  endfacet
  facet normal -0 0 -1
    outer loop
      vertex 27.8305 0.00856018 0
      vertex 27.7 0 0
      vertex 28.6914 0.869476 0
    endloop
  endfacet
  facet normal -0 0 -1
    outer loop
      vertex 28.6914 0.869476 0
      vertex 27.7 0 0
      vertex 28.7 1 0
    endloop
  endfacet
  facet normal 0 0 -1
    outer loop
      vertex 28.7 1 0
      vertex 27.7 17.7 0
      vertex 28.7 16.7 0
    endloop
  endfacet
  facet normal 0 0 -1
    outer loop
      vertex 28.6239 17.0827 0
      vertex 28.6659 16.9588 0
      vertex 28.6914 16.8305 0
    endloop
  endfacet
  facet normal -0 -0 -1
    outer loop
      vertex 28.566 17.2 0
      vertex 28.6239 17.0827 0
      vertex 28.4933 17.3088 0
    endloop
  endfacet
  facet normal 0 0 -1
    outer loop
      vertex 28.4933 17.3088 0
      vertex 28.0827 17.6239 0
      vertex 28.3088 17.4933 0
    endloop
  endfacet
  facet normal -0 -0 -1
    outer loop
      vertex 28.4071 17.4071 0
      vertex 28.4933 17.3088 0
      vertex 28.3088 17.4933 0
    endloop
  endfacet
  facet normal -0 -0 -1
    outer loop
      vertex 28.4933 17.3088 0
      vertex 28.6239 17.0827 0
      vertex 28.0827 17.6239 0
    endloop
  endfacet
  facet normal -0 -0 -1
    outer loop
      vertex 28.2 17.566 0
      vertex 28.3088 17.4933 0
      vertex 28.0827 17.6239 0
    endloop
  endfacet
  facet normal -0 -0 -1
    outer loop
      vertex 28.0827 17.6239 0
      vertex 28.6239 17.0827 0
      vertex 27.8305 17.6914 0
    endloop
  endfacet
  facet normal -0 -0 -1
    outer loop
      vertex 27.9588 17.6659 0
      vertex 28.0827 17.6239 0
      vertex 27.8305 17.6914 0
    endloop
  endfacet
  facet normal 0 0 -1
    outer loop
      vertex 27.8305 17.6914 0
      vertex 28.6239 17.0827 0
      vertex 28.6914 16.8305 0
    endloop
  endfacet
  facet normal 0 0 -1
    outer loop
      vertex 27.7 17.7 0
      vertex 27.8305 17.6914 0
      vertex 28.6914 16.8305 0
    endloop
  endfacet
  facet normal 0 0 -1
    outer loop
      vertex 28.7 16.7 0
      vertex 27.7 17.7 0
      vertex 28.6914 16.8305 0
    endloop
  endfacet
  facet normal -0 0 -1
    outer loop
      vertex 28.7 1 0
      vertex 27.7 0 0
      vertex 27.7 17.7 0
    endloop
  endfacet
  facet normal -0 -0 -1
    outer loop
      vertex 27.7 17.7 0
      vertex 27.7 0 0
      vertex 1 17.7 0
    endloop
  endfacet
  facet normal 0 0 -1
    outer loop
      vertex 0.61731 17.6239 0
      vertex 0.74118 17.6659 0
      vertex 0.869476 17.6914 0
    endloop
  endfacet
  facet normal 0 -0 -1
    outer loop
      vertex 0.5 17.566 0
      vertex 0.61731 17.6239 0
      vertex 0.391235 17.4933 0
    endloop
  endfacet
  facet normal 0 0 -1
    outer loop
      vertex 0.391235 17.4933 0
      vertex 0.0761261 17.0827 0
      vertex 0.20665 17.3088 0
    endloop
  endfacet
  facet normal 0 -0 -1
    outer loop
      vertex 0.292892 17.4071 0
      vertex 0.391235 17.4933 0
      vertex 0.20665 17.3088 0
    endloop
  endfacet
  facet normal 0 -0 -1
    outer loop
      vertex 0.391235 17.4933 0
      vertex 0.61731 17.6239 0
      vertex 0.0761261 17.0827 0
    endloop
  endfacet
  facet normal 0 -0 -1
    outer loop
      vertex 0.133972 17.2 0
      vertex 0.20665 17.3088 0
      vertex 0.0761261 17.0827 0
    endloop
  endfacet
  facet normal 0 -0 -1
    outer loop
      vertex 0.0761261 17.0827 0
      vertex 0.61731 17.6239 0
      vertex 0.00856018 16.8305 0
    endloop
  endfacet
  facet normal 0 -0 -1
    outer loop
      vertex 0.0340729 16.9588 0
      vertex 0.0761261 17.0827 0
      vertex 0.00856018 16.8305 0
    endloop
  endfacet
  facet normal 0 0 -1
    outer loop
      vertex 0.00856018 16.8305 0
      vertex 0.61731 17.6239 0
      vertex 0.869476 17.6914 0
    endloop
  endfacet
  facet normal 0 0 -1
    outer loop
      vertex 0 16.7 0
      vertex 0.00856018 16.8305 0
      vertex 0.869476 17.6914 0
    endloop
  endfacet
  facet normal 0 0 -1
    outer loop
      vertex 1 17.7 0
      vertex 0 16.7 0
      vertex 0.869476 17.6914 0
    endloop
  endfacet
  facet normal 0 0 -1
    outer loop
      vertex 1 0 0
      vertex 0 1 0
      vertex 0 16.7 0
    endloop
  endfacet
  facet normal 0 0 -1
    outer loop
      vertex 0.61731 0.0761261 0
      vertex 0.869476 0.00856018 0
      vertex 0.74118 0.0340729 0
    endloop
  endfacet
  facet normal 0 0 -1
    outer loop
      vertex 0.0761261 0.61731 0
      vertex 0.0340729 0.74118 0
      vertex 0.00856018 0.869476 0
    endloop
  endfacet
  facet normal 0 0 -1
    outer loop
      vertex 0.133972 0.5 0
      vertex 0.0761261 0.61731 0
      vertex 0.20665 0.391235 0
    endloop
  endfacet
  facet normal 0 0 -1
    outer loop
      vertex 0.20665 0.391235 0
      vertex 0.0761261 0.61731 0
      vertex 0.391235 0.20665 0
    endloop
  endfacet
  facet normal 0 0 -1
    outer loop
      vertex 0.292892 0.292892 0
      vertex 0.20665 0.391235 0
      vertex 0.391235 0.20665 0
    endloop
  endfacet
  facet normal 0 0 -1
    outer loop
      vertex 0.391235 0.20665 0
      vertex 0.0761261 0.61731 0
      vertex 0.61731 0.0761261 0
    endloop
  endfacet
  facet normal 0 0 -1
    outer loop
      vertex 0.5 0.133972 0
      vertex 0.391235 0.20665 0
      vertex 0.61731 0.0761261 0
    endloop
  endfacet
  facet normal 0 0 -1
    outer loop
      vertex 0.61731 0.0761261 0
      vertex 0.0761261 0.61731 0
      vertex 0.00856018 0.869476 0
    endloop
  endfacet
  facet normal 0 0 -1
    outer loop
      vertex 0.61731 0.0761261 0
      vertex 0.00856018 0.869476 0
      vertex 0.869476 0.00856018 0
    endloop
  endfacet
  facet normal 0 0 -1
    outer loop
      vertex 0.869476 0.00856018 0
      vertex 0.00856018 0.869476 0
      vertex 0 1 0
    endloop
  endfacet
  facet normal 0 0 -1
    outer loop
      vertex 1 0 0
      vertex 0.869476 0.00856018 0
      vertex 0 1 0
    endloop
  endfacet
  facet normal 0 -0 -1
    outer loop
      vertex 1 17.7 0
      vertex 1 0 0
      vertex 0 16.7 0
    endloop
  endfacet
  facet normal 0 0 -1
    outer loop
      vertex 1 17.7 0
      vertex 27.7 0 0
      vertex 1 0 0
    endloop
  endfacet
  facet normal 0 0 1
    outer loop
      vertex 28.0827 0.0761261 1
      vertex 27.8305 0.00856018 1
      vertex 27.9588 0.0340729 1
    endloop
  endfacet
  facet normal 0 0 1
    outer loop
      vertex 28.0827 0.0761261 1
      vertex 28.3088 0.20665 1
      vertex 28.4933 0.391235 1
    endloop
  endfacet
  facet normal 0 0 1
    outer loop
      vertex 28.0827 0.0761261 1
      vertex 28.2 0.133972 1
      vertex 28.3088 0.20665 1
    endloop
  endfacet
  facet normal 0 0 1
    outer loop
      vertex 28.3088 0.20665 1
      vertex 28.4071 0.292892 1
      vertex 28.4933 0.391235 1
    endloop
  endfacet
  facet normal 0 0 1
    outer loop
      vertex 28.0827 0.0761261 1
      vertex 28.4933 0.391235 1
      vertex 28.6239 0.61731 1
    endloop
  endfacet
  facet normal 0 0 1
    outer loop
      vertex 28.4933 0.391235 1
      vertex 28.566 0.5 1
      vertex 28.6239 0.61731 1
    endloop
  endfacet
  facet normal 0 -0 1
    outer loop
      vertex 28.0827 0.0761261 1
      vertex 28.6239 0.61731 1
      vertex 27.8305 0.00856018 1
    endloop
  endfacet
  facet normal 0 0 1
    outer loop
      vertex 28.6239 0.61731 1
      vertex 28.6659 0.74118 1
      vertex 28.6914 0.869476 1
    endloop
  endfacet
  facet normal 0 -0 1
    outer loop
      vertex 28.6239 0.61731 1
      vertex 28.6914 0.869476 1
      vertex 27.8305 0.00856018 1
    endloop
  endfacet
  facet normal 0 0 1
    outer loop
      vertex 28.6914 0.869476 1
      vertex 27.7 0 1
      vertex 27.8305 0.00856018 1
    endloop
  endfacet
  facet normal 0 0 1
    outer loop
      vertex 28.7 1 1
      vertex 27.7 0 1
      vertex 28.6914 0.869476 1
    endloop
  endfacet
  facet normal 0 0 1
    outer loop
      vertex 28.7 16.7 1
      vertex 27.7 17.7 1
      vertex 28.7 1 1
    endloop
  endfacet
  facet normal 0 0 1
    outer loop
      vertex 28.6914 16.8305 1
      vertex 28.6659 16.9588 1
      vertex 28.6239 17.0827 1
    endloop
  endfacet
  facet normal 0 0 1
    outer loop
      vertex 28.4933 17.3088 1
      vertex 28.6239 17.0827 1
      vertex 28.566 17.2 1
    endloop
  endfacet
  facet normal 0 0 1
    outer loop
      vertex 28.3088 17.4933 1
      vertex 28.0827 17.6239 1
      vertex 28.4933 17.3088 1
    endloop
  endfacet
  facet normal 0 0 1
    outer loop
      vertex 28.3088 17.4933 1
      vertex 28.4933 17.3088 1
      vertex 28.4071 17.4071 1
    endloop
  endfacet
  facet normal 0 0 1
    outer loop
      vertex 28.0827 17.6239 1
      vertex 28.6239 17.0827 1
      vertex 28.4933 17.3088 1
    endloop
  endfacet
  facet normal 0 0 1
    outer loop
      vertex 28.0827 17.6239 1
      vertex 28.3088 17.4933 1
      vertex 28.2 17.566 1
    endloop
  endfacet
  facet normal 0 0 1
    outer loop
      vertex 27.8305 17.6914 1
      vertex 28.6239 17.0827 1
      vertex 28.0827 17.6239 1
    endloop
  endfacet
  facet normal 0 0 1
    outer loop
      vertex 27.8305 17.6914 1
      vertex 28.0827 17.6239 1
      vertex 27.9588 17.6659 1
    endloop
  endfacet
  facet normal 0 0 1
    outer loop
      vertex 28.6914 16.8305 1
      vertex 28.6239 17.0827 1
      vertex 27.8305 17.6914 1
    endloop
  endfacet
  facet normal 0 0 1
    outer loop
      vertex 28.6914 16.8305 1
      vertex 27.8305 17.6914 1
      vertex 27.7 17.7 1
    endloop
  endfacet
  facet normal 0 0 1
    outer loop
      vertex 28.6914 16.8305 1
      vertex 27.7 17.7 1
      vertex 28.7 16.7 1
    endloop
  endfacet
  facet normal 0 0 1
    outer loop
      vertex 27.7 17.7 1
      vertex 27.7 0 1
      vertex 28.7 1 1
    endloop
  endfacet
  facet normal -0 0 1
    outer loop
      vertex 1 17.7 1
      vertex 27.7 0 1
      vertex 27.7 17.7 1
    endloop
  endfacet
  facet normal 0 0 1
    outer loop
      vertex 0.869476 17.6914 1
      vertex 0.74118 17.6659 1
      vertex 0.61731 17.6239 1
    endloop
  endfacet
  facet normal 0 0 1
    outer loop
      vertex 0.391235 17.4933 1
      vertex 0.61731 17.6239 1
      vertex 0.5 17.566 1
    endloop
  endfacet
  facet normal -0 0 1
    outer loop
      vertex 0.20665 17.3088 1
      vertex 0.0761261 17.0827 1
      vertex 0.391235 17.4933 1
    endloop
  endfacet
  facet normal 0 0 1
    outer loop
      vertex 0.20665 17.3088 1
      vertex 0.391235 17.4933 1
      vertex 0.292892 17.4071 1
    endloop
  endfacet
  facet normal 0 0 1
    outer loop
      vertex 0.0761261 17.0827 1
      vertex 0.61731 17.6239 1
      vertex 0.391235 17.4933 1
    endloop
  endfacet
  facet normal 0 0 1
    outer loop
      vertex 0.0761261 17.0827 1
      vertex 0.20665 17.3088 1
      vertex 0.133972 17.2 1
    endloop
  endfacet
  facet normal 0 0 1
    outer loop
      vertex 0.00856018 16.8305 1
      vertex 0.61731 17.6239 1
      vertex 0.0761261 17.0827 1
    endloop
  endfacet
  facet normal 0 0 1
    outer loop
      vertex 0.00856018 16.8305 1
      vertex 0.0761261 17.0827 1
      vertex 0.0340729 16.9588 1
    endloop
  endfacet
  facet normal 0 0 1
    outer loop
      vertex 0.869476 17.6914 1
      vertex 0.61731 17.6239 1
      vertex 0.00856018 16.8305 1
    endloop
  endfacet
  facet normal 0 0 1
    outer loop
      vertex 0.869476 17.6914 1
      vertex 0.00856018 16.8305 1
      vertex 0 16.7 1
    endloop
  endfacet
  facet normal -0 0 1
    outer loop
      vertex 0.869476 17.6914 1
      vertex 0 16.7 1
      vertex 1 17.7 1
    endloop
  endfacet
  facet normal 0 0 1
    outer loop
      vertex 0 16.7 1
      vertex 0 1 1
      vertex 1 0 1
    endloop
  endfacet
  facet normal -0 -0 1
    outer loop
      vertex 0.74118 0.0340729 1
      vertex 0.869476 0.00856018 1
      vertex 0.61731 0.0761261 1
    endloop
  endfacet
  facet normal 0 0 1
    outer loop
      vertex 0.00856018 0.869476 1
      vertex 0.0340729 0.74118 1
      vertex 0.0761261 0.61731 1
    endloop
  endfacet
  facet normal 0 0 1
    outer loop
      vertex 0.20665 0.391235 1
      vertex 0.0761261 0.61731 1
      vertex 0.133972 0.5 1
    endloop
  endfacet
  facet normal 0 0 1
    outer loop
      vertex 0.391235 0.20665 1
      vertex 0.0761261 0.61731 1
      vertex 0.20665 0.391235 1
    endloop
  endfacet
  facet normal 0 0 1
    outer loop
      vertex 0.391235 0.20665 1
      vertex 0.20665 0.391235 1
      vertex 0.292892 0.292892 1
    endloop
  endfacet
  facet normal 0 0 1
    outer loop
      vertex 0.61731 0.0761261 1
      vertex 0.0761261 0.61731 1
      vertex 0.391235 0.20665 1
    endloop
  endfacet
  facet normal 0 0 1
    outer loop
      vertex 0.61731 0.0761261 1
      vertex 0.391235 0.20665 1
      vertex 0.5 0.133972 1
    endloop
  endfacet
  facet normal 0 0 1
    outer loop
      vertex 0.00856018 0.869476 1
      vertex 0.0761261 0.61731 1
      vertex 0.61731 0.0761261 1
    endloop
  endfacet
  facet normal 0 0 1
    outer loop
      vertex 0.869476 0.00856018 1
      vertex 0.00856018 0.869476 1
      vertex 0.61731 0.0761261 1
    endloop
  endfacet
  facet normal 0 0 1
    outer loop
      vertex 0 1 1
      vertex 0.00856018 0.869476 1
      vertex 0.869476 0.00856018 1
    endloop
  endfacet
  facet normal 0 0 1
    outer loop
      vertex 0 1 1
      vertex 0.869476 0.00856018 1
      vertex 1 0 1
    endloop
  endfacet
  facet normal -0 0 1
    outer loop
      vertex 0 16.7 1
      vertex 1 0 1
      vertex 1 17.7 1
    endloop
  endfacet
  facet normal 0 0 1
    outer loop
      vertex 1 0 1
      vertex 27.7 0 1
      vertex 1 17.7 1
    endloop
  endfacet
  facet normal 0.195033 -0.980797 0
    outer loop
      vertex 27.9588 0.0340729 0
      vertex 27.8305 0.00856018 1
      vertex 27.8305 0.00856018 0
    endloop
  endfacet
  facet normal 0.195033 -0.980797 0
    outer loop
      vertex 27.9588 0.0340729 0
      vertex 27.9588 0.0340729 1
      vertex 27.8305 0.00856018 1
    endloop
  endfacet
  facet normal 0.321404 -0.946942 0
    outer loop
      vertex 28.0827 0.0761261 0
      vertex 27.9588 0.0340729 1
      vertex 27.9588 0.0340729 0
    endloop
  endfacet
  facet normal 0.321404 -0.946942 0
    outer loop
      vertex 28.0827 0.0761261 0
      vertex 28.0827 0.0761261 1
      vertex 27.9588 0.0340729 1
    endloop
  endfacet
  facet normal 0.442288 -0.896873 0
    outer loop
      vertex 28.2 0.133972 0
      vertex 28.0827 0.0761261 1
      vertex 28.0827 0.0761261 0
    endloop
  endfacet
  facet normal 0.442288 -0.896873 0
    outer loop
      vertex 28.2 0.133972 0
      vertex 28.2 0.133972 1
      vertex 28.0827 0.0761261 1
    endloop
  endfacet
  facet normal 0.555465 -0.83154 0
    outer loop
      vertex 28.3088 0.20665 0
      vertex 28.2 0.133972 1
      vertex 28.2 0.133972 0
    endloop
  endfacet
  facet normal 0.555465 -0.83154 0
    outer loop
      vertex 28.3088 0.20665 0
      vertex 28.3088 0.20665 1
      vertex 28.2 0.133972 1
    endloop
  endfacet
  facet normal 0.659498 -0.751706 0
    outer loop
      vertex 28.4071 0.292892 0
      vertex 28.3088 0.20665 1
      vertex 28.3088 0.20665 0
    endloop
  endfacet
  facet normal 0.659498 -0.751706 0
    outer loop
      vertex 28.4071 0.292892 0
      vertex 28.4071 0.292892 1
      vertex 28.3088 0.20665 1
    endloop
  endfacet
  facet normal 0.752008 -0.659153 0
    outer loop
      vertex 28.4933 0.391235 0
      vertex 28.4071 0.292892 1
      vertex 28.4071 0.292892 0
    endloop
  endfacet
  facet normal 0.752008 -0.659153 0
    outer loop
      vertex 28.4933 0.391235 0
      vertex 28.4933 0.391235 1
      vertex 28.4071 0.292892 1
    endloop
  endfacet
  facet normal 0.831379 -0.555705 0
    outer loop
      vertex 28.566 0.5 0
      vertex 28.4933 0.391235 1
      vertex 28.4933 0.391235 0
    endloop
  endfacet
  facet normal 0.831379 -0.555705 0
    outer loop
      vertex 28.566 0.5 0
      vertex 28.566 0.5 1
      vertex 28.4933 0.391235 1
    endloop
  endfacet
  facet normal 0.896724 -0.442591 0
    outer loop
      vertex 28.6239 0.61731 0
      vertex 28.566 0.5 1
      vertex 28.566 0.5 0
    endloop
  endfacet
  facet normal 0.896724 -0.442591 0
    outer loop
      vertex 28.6239 0.61731 0
      vertex 28.6239 0.61731 1
      vertex 28.566 0.5 1
    endloop
  endfacet
  facet normal 0.947042 -0.321109 0
    outer loop
      vertex 28.6659 0.74118 0
      vertex 28.6239 0.61731 1
      vertex 28.6239 0.61731 0
    endloop
  endfacet
  facet normal 0.947042 -0.321109 0
    outer loop
      vertex 28.6659 0.74118 0
      vertex 28.6659 0.74118 1
      vertex 28.6239 0.61731 1
    endloop
  endfacet
  facet normal 0.980814 -0.194946 0
    outer loop
      vertex 28.6914 0.869476 0
      vertex 28.6659 0.74118 1
      vertex 28.6659 0.74118 0
    endloop
  endfacet
  facet normal 0.980814 -0.194946 0
    outer loop
      vertex 28.6914 0.869476 0
      vertex 28.6914 0.869476 1
      vertex 28.6659 0.74118 1
    endloop
  endfacet
  facet normal 0.997836 -0.0657457 0
    outer loop
      vertex 28.7 1 0
      vertex 28.6914 0.869476 1
      vertex 28.6914 0.869476 0
    endloop
  endfacet
  facet normal 0.997836 -0.0657457 0
    outer loop
      vertex 28.7 1 0
      vertex 28.7 1 1
      vertex 28.6914 0.869476 1
    endloop
  endfacet
  facet normal 1 0 0
    outer loop
      vertex 28.7 16.7 0
      vertex 28.7 1 1
      vertex 28.7 1 0
    endloop
  endfacet
  facet normal 1 0 -0
    outer loop
      vertex 28.7 16.7 0
      vertex 28.7 16.7 1
      vertex 28.7 1 1
    endloop
  endfacet
  facet normal 0.997836 0.0657577 0
    outer loop
      vertex 28.6914 16.8305 0
      vertex 28.7 16.7 1
      vertex 28.7 16.7 0
    endloop
  endfacet
  facet normal 0.997836 0.0657577 -0
    outer loop
      vertex 28.6914 16.8305 0
      vertex 28.6914 16.8305 1
      vertex 28.7 16.7 1
    endloop
  endfacet
  facet normal 0.980815 0.19494 0
    outer loop
      vertex 28.6659 16.9588 0
      vertex 28.6914 16.8305 1
      vertex 28.6914 16.8305 0
    endloop
  endfacet
  facet normal 0.980815 0.19494 -0
    outer loop
      vertex 28.6659 16.9588 0
      vertex 28.6659 16.9588 1
      vertex 28.6914 16.8305 1
    endloop
  endfacet
  facet normal 0.947066 0.321039 0
    outer loop
      vertex 28.6239 17.0827 0
      vertex 28.6659 16.9588 1
      vertex 28.6659 16.9588 0
    endloop
  endfacet
  facet normal 0.947066 0.321039 -0
    outer loop
      vertex 28.6239 17.0827 0
      vertex 28.6239 17.0827 1
      vertex 28.6659 16.9588 1
    endloop
  endfacet
  facet normal 0.896709 0.442621 0
    outer loop
      vertex 28.566 17.2 0
      vertex 28.6239 17.0827 1
      vertex 28.6239 17.0827 0
    endloop
  endfacet
  facet normal 0.896709 0.442621 -0
    outer loop
      vertex 28.566 17.2 0
      vertex 28.566 17.2 1
      vertex 28.6239 17.0827 1
    endloop
  endfacet
  facet normal 0.831462 0.555582 0
    outer loop
      vertex 28.4933 17.3088 0
      vertex 28.566 17.2 1
      vertex 28.566 17.2 0
    endloop
  endfacet
  facet normal 0.831462 0.555582 -0
    outer loop
      vertex 28.4933 17.3088 0
      vertex 28.4933 17.3088 1
      vertex 28.566 17.2 1
    endloop
  endfacet
  facet normal 0.751866 0.659316 0
    outer loop
      vertex 28.4071 17.4071 0
      vertex 28.4933 17.3088 1
      vertex 28.4933 17.3088 0
    endloop
  endfacet
  facet normal 0.751866 0.659316 -0
    outer loop
      vertex 28.4071 17.4071 0
      vertex 28.4071 17.4071 1
      vertex 28.4933 17.3088 1
    endloop
  endfacet
  facet normal 0.659316 0.751866 0
    outer loop
      vertex 28.3088 17.4933 0
      vertex 28.4071 17.4071 1
      vertex 28.4071 17.4071 0
    endloop
  endfacet
  facet normal 0.659316 0.751866 -0
    outer loop
      vertex 28.3088 17.4933 0
      vertex 28.3088 17.4933 1
      vertex 28.4071 17.4071 1
    endloop
  endfacet
  facet normal 0.555582 0.831462 0
    outer loop
      vertex 28.2 17.566 0
      vertex 28.3088 17.4933 1
      vertex 28.3088 17.4933 0
    endloop
  endfacet
  facet normal 0.555582 0.831462 -0
    outer loop
      vertex 28.2 17.566 0
      vertex 28.2 17.566 1
      vertex 28.3088 17.4933 1
    endloop
  endfacet
  facet normal 0.442621 0.896709 0
    outer loop
      vertex 28.0827 17.6239 0
      vertex 28.2 17.566 1
      vertex 28.2 17.566 0
    endloop
  endfacet
  facet normal 0.442621 0.896709 -0
    outer loop
      vertex 28.0827 17.6239 0
      vertex 28.0827 17.6239 1
      vertex 28.2 17.566 1
    endloop
  endfacet
  facet normal 0.321039 0.947066 0
    outer loop
      vertex 27.9588 17.6659 0
      vertex 28.0827 17.6239 1
      vertex 28.0827 17.6239 0
    endloop
  endfacet
  facet normal 0.321039 0.947066 -0
    outer loop
      vertex 27.9588 17.6659 0
      vertex 27.9588 17.6659 1
      vertex 28.0827 17.6239 1
    endloop
  endfacet
  facet normal 0.19494 0.980815 0
    outer loop
      vertex 27.8305 17.6914 0
      vertex 27.9588 17.6659 1
      vertex 27.9588 17.6659 0
    endloop
  endfacet
  facet normal 0.19494 0.980815 -0
    outer loop
      vertex 27.8305 17.6914 0
      vertex 27.8305 17.6914 1
      vertex 27.9588 17.6659 1
    endloop
  endfacet
  facet normal 0.0657577 0.997836 0
    outer loop
      vertex 27.7 17.7 0
      vertex 27.8305 17.6914 1
      vertex 27.8305 17.6914 0
    endloop
  endfacet
  facet normal 0.0657577 0.997836 -0
    outer loop
      vertex 27.7 17.7 0
      vertex 27.7 17.7 1
      vertex 27.8305 17.6914 1
    endloop
  endfacet
  facet normal 0 1 0
    outer loop
      vertex 1 17.7 0
      vertex 27.7 17.7 1
      vertex 27.7 17.7 0
    endloop
  endfacet
  facet normal 0 1 0
    outer loop
      vertex 1 17.7 0
      vertex 1 17.7 1
      vertex 27.7 17.7 1
    endloop
  endfacet
  facet normal -0.0657457 0.997836 0
    outer loop
      vertex 0.869476 17.6914 0
      vertex 1 17.7 1
      vertex 1 17.7 0
    endloop
  endfacet
  facet normal -0.0657457 0.997836 0
    outer loop
      vertex 0.869476 17.6914 0
      vertex 0.869476 17.6914 1
      vertex 1 17.7 1
    endloop
  endfacet
  facet normal -0.194946 0.980814 0
    outer loop
      vertex 0.74118 17.6659 0
      vertex 0.869476 17.6914 1
      vertex 0.869476 17.6914 0
    endloop
  endfacet
  facet normal -0.194946 0.980814 0
    outer loop
      vertex 0.74118 17.6659 0
      vertex 0.74118 17.6659 1
      vertex 0.869476 17.6914 1
    endloop
  endfacet
  facet normal -0.321109 0.947042 0
    outer loop
      vertex 0.61731 17.6239 0
      vertex 0.74118 17.6659 1
      vertex 0.74118 17.6659 0
    endloop
  endfacet
  facet normal -0.321109 0.947042 0
    outer loop
      vertex 0.61731 17.6239 0
      vertex 0.61731 17.6239 1
      vertex 0.74118 17.6659 1
    endloop
  endfacet
  facet normal -0.442591 0.896724 0
    outer loop
      vertex 0.5 17.566 0
      vertex 0.61731 17.6239 1
      vertex 0.61731 17.6239 0
    endloop
  endfacet
  facet normal -0.442591 0.896724 0
    outer loop
      vertex 0.5 17.566 0
      vertex 0.5 17.566 1
      vertex 0.61731 17.6239 1
    endloop
  endfacet
  facet normal -0.555705 0.831379 0
    outer loop
      vertex 0.391235 17.4933 0
      vertex 0.5 17.566 1
      vertex 0.5 17.566 0
    endloop
  endfacet
  facet normal -0.555705 0.831379 0
    outer loop
      vertex 0.391235 17.4933 0
      vertex 0.391235 17.4933 1
      vertex 0.5 17.566 1
    endloop
  endfacet
  facet normal -0.659153 0.752008 0
    outer loop
      vertex 0.292892 17.4071 0
      vertex 0.391235 17.4933 1
      vertex 0.391235 17.4933 0
    endloop
  endfacet
  facet normal -0.659153 0.752008 0
    outer loop
      vertex 0.292892 17.4071 0
      vertex 0.292892 17.4071 1
      vertex 0.391235 17.4933 1
    endloop
  endfacet
  facet normal -0.751706 0.659498 0
    outer loop
      vertex 0.20665 17.3088 0
      vertex 0.292892 17.4071 1
      vertex 0.292892 17.4071 0
    endloop
  endfacet
  facet normal -0.751706 0.659498 0
    outer loop
      vertex 0.20665 17.3088 0
      vertex 0.20665 17.3088 1
      vertex 0.292892 17.4071 1
    endloop
  endfacet
  facet normal -0.83154 0.555465 0
    outer loop
      vertex 0.133972 17.2 0
      vertex 0.20665 17.3088 1
      vertex 0.20665 17.3088 0
    endloop
  endfacet
  facet normal -0.83154 0.555465 0
    outer loop
      vertex 0.133972 17.2 0
      vertex 0.133972 17.2 1
      vertex 0.20665 17.3088 1
    endloop
  endfacet
  facet normal -0.896873 0.442288 0
    outer loop
      vertex 0.0761261 17.0827 0
      vertex 0.133972 17.2 1
      vertex 0.133972 17.2 0
    endloop
  endfacet
  facet normal -0.896873 0.442288 0
    outer loop
      vertex 0.0761261 17.0827 0
      vertex 0.0761261 17.0827 1
      vertex 0.133972 17.2 1
    endloop
  endfacet
  facet normal -0.946942 0.321404 0
    outer loop
      vertex 0.0340729 16.9588 0
      vertex 0.0761261 17.0827 1
      vertex 0.0761261 17.0827 0
    endloop
  endfacet
  facet normal -0.946942 0.321404 0
    outer loop
      vertex 0.0340729 16.9588 0
      vertex 0.0340729 16.9588 1
      vertex 0.0761261 17.0827 1
    endloop
  endfacet
  facet normal -0.980797 0.195033 0
    outer loop
      vertex 0.00856018 16.8305 0
      vertex 0.0340729 16.9588 1
      vertex 0.0340729 16.9588 0
    endloop
  endfacet
  facet normal -0.980797 0.195033 0
    outer loop
      vertex 0.00856018 16.8305 0
      vertex 0.00856018 16.8305 1
      vertex 0.0340729 16.9588 1
    endloop
  endfacet
  facet normal -0.997856 0.0654546 0
    outer loop
      vertex 0 16.7 0
      vertex 0.00856018 16.8305 1
      vertex 0.00856018 16.8305 0
    endloop
  endfacet
  facet normal -0.997856 0.0654546 0
    outer loop
      vertex 0 16.7 0
      vertex 0 16.7 1
      vertex 0.00856018 16.8305 1
    endloop
  endfacet
  facet normal -1 0 0
    outer loop
      vertex 0 1 0
      vertex 0 16.7 1
      vertex 0 16.7 0
    endloop
  endfacet
  facet normal -1 0 0
    outer loop
      vertex 0 1 0
      vertex 0 1 1
      vertex 0 16.7 1
    endloop
  endfacet
  facet normal -0.997856 -0.0654426 0
    outer loop
      vertex 0.00856018 0.869476 0
      vertex 0 1 1
      vertex 0 1 0
    endloop
  endfacet
  facet normal -0.997856 -0.0654426 0
    outer loop
      vertex 0.00856018 0.869476 0
      vertex 0.00856018 0.869476 1
      vertex 0 1 1
    endloop
  endfacet
  facet normal -0.980795 -0.195039 0
    outer loop
      vertex 0.0340729 0.74118 0
      vertex 0.00856018 0.869476 1
      vertex 0.00856018 0.869476 0
    endloop
  endfacet
  facet normal -0.980795 -0.195039 0
    outer loop
      vertex 0.0340729 0.74118 0
      vertex 0.0340729 0.74118 1
      vertex 0.00856018 0.869476 1
    endloop
  endfacet
  facet normal -0.946918 -0.321474 0
    outer loop
      vertex 0.0761261 0.61731 0
      vertex 0.0340729 0.74118 1
      vertex 0.0340729 0.74118 0
    endloop
  endfacet
  facet normal -0.946918 -0.321474 0
    outer loop
      vertex 0.0761261 0.61731 0
      vertex 0.0761261 0.61731 1
      vertex 0.0340729 0.74118 1
    endloop
  endfacet
  facet normal -0.896888 -0.442258 0
    outer loop
      vertex 0.133972 0.5 0
      vertex 0.0761261 0.61731 1
      vertex 0.0761261 0.61731 0
    endloop
  endfacet
  facet normal -0.896888 -0.442258 0
    outer loop
      vertex 0.133972 0.5 0
      vertex 0.133972 0.5 1
      vertex 0.0761261 0.61731 1
    endloop
  endfacet
  facet normal -0.831457 -0.555589 0
    outer loop
      vertex 0.20665 0.391235 0
      vertex 0.133972 0.5 1
      vertex 0.133972 0.5 0
    endloop
  endfacet
  facet normal -0.831457 -0.555589 0
    outer loop
      vertex 0.20665 0.391235 0
      vertex 0.20665 0.391235 1
      vertex 0.133972 0.5 1
    endloop
  endfacet
  facet normal -0.751849 -0.659335 0
    outer loop
      vertex 0.292892 0.292892 0
      vertex 0.20665 0.391235 1
      vertex 0.20665 0.391235 0
    endloop
  endfacet
  facet normal -0.751849 -0.659335 0
    outer loop
      vertex 0.292892 0.292892 0
      vertex 0.292892 0.292892 1
      vertex 0.20665 0.391235 1
    endloop
  endfacet
  facet normal -0.659335 -0.751849 0
    outer loop
      vertex 0.391235 0.20665 0
      vertex 0.292892 0.292892 1
      vertex 0.292892 0.292892 0
    endloop
  endfacet
  facet normal -0.659335 -0.751849 0
    outer loop
      vertex 0.391235 0.20665 0
      vertex 0.391235 0.20665 1
      vertex 0.292892 0.292892 1
    endloop
  endfacet
  facet normal -0.555589 -0.831457 0
    outer loop
      vertex 0.5 0.133972 0
      vertex 0.391235 0.20665 1
      vertex 0.391235 0.20665 0
    endloop
  endfacet
  facet normal -0.555589 -0.831457 0
    outer loop
      vertex 0.5 0.133972 0
      vertex 0.5 0.133972 1
      vertex 0.391235 0.20665 1
    endloop
  endfacet
  facet normal -0.442258 -0.896888 0
    outer loop
      vertex 0.61731 0.0761261 0
      vertex 0.5 0.133972 1
      vertex 0.5 0.133972 0
    endloop
  endfacet
  facet normal -0.442258 -0.896888 0
    outer loop
      vertex 0.61731 0.0761261 0
      vertex 0.61731 0.0761261 1
      vertex 0.5 0.133972 1
    endloop
  endfacet
  facet normal -0.321474 -0.946918 0
    outer loop
      vertex 0.74118 0.0340729 0
      vertex 0.61731 0.0761261 1
      vertex 0.61731 0.0761261 0
    endloop
  endfacet
  facet normal -0.321474 -0.946918 0
    outer loop
      vertex 0.74118 0.0340729 0
      vertex 0.74118 0.0340729 1
      vertex 0.61731 0.0761261 1
    endloop
  endfacet
  facet normal -0.195039 -0.980795 0
    outer loop
      vertex 0.869476 0.00856018 0
      vertex 0.74118 0.0340729 1
      vertex 0.74118 0.0340729 0
    endloop
  endfacet
  facet normal -0.195039 -0.980795 0
    outer loop
      vertex 0.869476 0.00856018 0
      vertex 0.869476 0.00856018 1
      vertex 0.74118 0.0340729 1
    endloop
  endfacet
  facet normal -0.0654426 -0.997856 0
    outer loop
      vertex 1 0 0
      vertex 0.869476 0.00856018 1
      vertex 0.869476 0.00856018 0
    endloop
  endfacet
  facet normal -0.0654426 -0.997856 0
    outer loop
      vertex 1 0 0
      vertex 1 0 1
      vertex 0.869476 0.00856018 1
    endloop
  endfacet
  facet normal 0 -1 0
    outer loop
      vertex 27.7 0 0
      vertex 1 0 1
      vertex 1 0 0
    endloop
  endfacet
  facet normal 0 -1 0
    outer loop
      vertex 27.7 0 0
      vertex 27.7 0 1
      vertex 1 0 1
    endloop
  endfacet
  facet normal 0.0654546 -0.997856 0
    outer loop
      vertex 27.8305 0.00856018 0
      vertex 27.7 0 1
      vertex 27.7 0 0
    endloop
  endfacet
  facet normal 0.0654546 -0.997856 0
    outer loop
      vertex 27.8305 0.00856018 0
      vertex 27.8305 0.00856018 1
      vertex 27.7 0 1
    endloop
  endfacet
endsolid OpenSCAD_Model
